<svg xmlns="http://www.w3.org/2000/svg" viewBox="0 0 512 512">
  <path fill="currentColor" d="M416 192H32c-18 0-32 14-32 32v192c0 53 43 96 96 96h192c53 0 96-43 96-96v-32h32a96 96 0 000-192zm-64 224c0 35-29 64-64 64H96c-35 0-64-29-64-64V224h320v192zm64-64h-32V224h32a64 64 0 010 128zM191 79c18 17 31 40 33 73 0 4 3 8 8 8h16c4 0 8-4 8-8-3-43-20-74-42-96a74 74 0 01-22-49c0-4-4-7-8-7h-16c-5 0-8 4-8 9 1 15 5 43 31 70zm-95 0c17 17 30 40 32 73 0 4 4 8 8 8h16c4 0 8-4 8-8-2-43-19-74-42-96A75 75 0 0197 7c-1-4-4-7-9-7H72c-4 0-8 4-7 9 1 15 5 43 31 70z"/>
</svg>
