<svg xmlns="http://www.w3.org/2000/svg" viewBox="0 0 512 512">
  <path fill="currentColor" d="M127 147c1 7 8 13 16 13h17c9 0 17-8 16-18-4-28-16-54-37-75a95 95 0 01-26-53c-1-8-8-14-16-14H80c-9 0-17 9-16 18 4 32 18 61 41 84 12 13 19 28 22 45zm112 0c1 7 8 13 16 13h17c9 0 17-8 16-18-4-28-16-54-37-75a95 95 0 01-26-53c-1-8-8-14-16-14h-17c-9 0-17 9-16 18 4 32 18 61 41 84 12 13 19 28 22 45zm161 45H32c-18 0-32 14-32 32v192c0 53 43 96 96 96h192c53 0 96-43 96-96h16a112 112 0 000-224zm0 160h-16v-96h16a48 48 0 010 96z"/>
</svg>
