<svg xmlns="http://www.w3.org/2000/svg" aria-hidden="true" class="svg-inline--fa fa-coffee-togo fa-w-14" data-icon="coffee-togo" data-prefix="fad" viewBox="0 0 448 512"><g class="fa-group"><path fill="currentColor" d="M48 160h352l-8 96H56zm331 256H69L58 284l17 199a32 32 0 0 0 32 29h234a32 32 0 0 0 32-29l17-199z" class="fa-secondary" opacity="0.4"/><path fill="currentColor" d="M69 416h310l13-160H56zM432 64h-16l-23-46a32 32 0 0 0-29-18H84a32 32 0 0 0-29 18L32 64H16A16 16 0 0 0 0 80v32a16 16 0 0 0 16 16h416a16 16 0 0 0 16-16V80a16 16 0 0 0-16-16z" class="fa-primary"/></g></svg>